<svg class="logo" version="1.0" xmlns="http://www.w3.org/2000/svg"
 width="1300.000000pt" height="1430.000000pt" viewBox="0 0 1300.000000 1430.000000"
 preserveAspectRatio="xMidYMid meet">

<g transform="translate(0.000000,1430.000000) scale(0.100000,-0.100000)"
fill="#154377" stroke="none">
<path d="M3823 12053 c-3 -10 -39 -95 -79 -189 -108 -254 -117 -288 -184 -684
-21 -129 -52 -314 -69 -410 -55 -321 -59 -523 -16 -689 47 -184 151 -369 335
-600 169 -213 195 -277 194 -481 0 -154 -14 -222 -71 -333 -19 -39 -58 -95
-86 -125 -50 -52 -51 -55 -32 -69 11 -7 53 -36 92 -64 179 -122 215 -237 179
-576 -25 -236 6 -346 129 -462 87 -81 208 -139 388 -186 151 -40 207 -60 207
-75 0 -21 -32 -21 -127 -1 -173 38 -356 92 -414 123 -67 35 -115 80 -222 211
-44 53 -86 97 -93 97 -8 0 -14 -1 -14 -3 0 -33 149 -485 185 -560 26 -56 86
-119 162 -169 129 -86 257 -130 553 -189 284 -57 360 -88 457 -191 93 -99 162
-226 222 -407 59 -179 90 -365 131 -791 24 -252 47 -333 125 -450 95 -143 255
-246 468 -303 69 -18 110 -21 262 -21 160 0 190 2 265 23 216 61 369 167 463
323 64 107 74 154 122 591 54 486 119 721 260 933 115 173 205 224 495 283
231 48 279 60 390 100 158 58 315 173 362 265 51 100 199 568 185 583 -11 10
-54 -34 -132 -137 -40 -52 -90 -112 -111 -134 -47 -47 -171 -106 -279 -134
-96 -25 -329 -72 -356 -72 -47 0 2 44 81 73 25 9 103 30 173 47 177 42 267 81
339 149 69 63 101 114 134 212 29 87 32 211 7 321 -9 41 -16 119 -17 178 0 93
2 111 26 161 34 74 83 126 185 200 45 33 83 65 83 71 0 6 -22 34 -49 64 -62
68 -104 154 -132 269 -18 75 -20 110 -16 205 8 183 46 269 197 445 82 96 129
171 224 356 96 186 135 318 143 479 8 152 -7 264 -102 780 -19 107 -42 233
-51 280 -24 139 -84 375 -116 458 -37 97 -88 190 -123 222 l-27 25 -18 -22
c-23 -29 -87 -190 -111 -278 -10 -38 -27 -124 -39 -190 -11 -66 -27 -140 -34
-165 -68 -225 -211 -369 -658 -662 -214 -140 -360 -256 -428 -342 -60 -75
-106 -160 -121 -221 -16 -68 -36 -115 -48 -115 -16 0 -13 94 5 163 48 188 165
321 466 535 153 109 151 107 108 144 -105 89 -489 234 -820 308 -169 39 -212
47 -365 73 -287 49 -324 52 -575 52 -201 -1 -272 -5 -395 -23 -376 -57 -654
-119 -945 -214 -214 -70 -440 -187 -440 -228 0 -12 25 -37 68 -66 174 -122
222 -158 289 -216 171 -150 262 -316 263 -477 0 -62 -21 -41 -56 57 -73 206
-184 322 -529 557 -254 173 -291 200 -385 281 -119 103 -221 227 -278 341 -37
73 -72 213 -92 368 -22 170 -29 199 -65 260 -39 67 -89 95 -102 58z m5385
-455 c11 -15 55 -141 72 -206 20 -76 28 -233 18 -332 -25 -262 -128 -522 -353
-895 -119 -198 -164 -285 -193 -375 -48 -148 -53 -295 -12 -387 15 -34 16 -43
5 -43 -19 0 -49 45 -70 105 -24 69 -25 227 -1 318 29 109 93 248 198 427 91
156 226 442 271 575 71 212 99 361 95 504 -2 97 -7 124 -26 164 -13 26 -28 45
-32 42 -5 -3 -16 -36 -24 -75 -36 -159 -99 -318 -158 -403 -12 -18 -47 -63
-79 -102 -31 -38 -84 -112 -118 -162 -34 -51 -91 -125 -127 -165 -181 -201
-319 -444 -375 -663 -32 -127 -32 -311 0 -405 33 -96 66 -147 144 -223 38 -37
67 -70 64 -73 -11 -12 -77 18 -126 57 -60 48 -119 139 -152 234 -21 61 -24 88
-24 210 0 158 14 231 71 379 66 172 176 341 427 657 306 387 382 525 417 754
7 44 14 83 17 88 7 12 60 8 71 -5z m-5357 -35 c6 -16 24 -75 41 -133 69 -235
151 -370 453 -740 182 -224 188 -232 253 -345 64 -111 116 -240 149 -365 38
-142 44 -355 14 -465 -25 -92 -58 -153 -110 -208 -38 -41 -123 -87 -160 -87
-18 0 -6 15 58 78 91 88 131 161 157 283 55 256 -85 641 -346 948 -158 186
-363 449 -394 505 -41 74 -66 144 -105 295 -17 62 -33 116 -36 119 -13 13 -24
-18 -34 -97 -25 -188 -8 -378 50 -559 38 -117 145 -347 213 -457 204 -329 275
-514 276 -711 0 -98 -26 -192 -70 -252 -39 -55 -55 -55 -46 1 54 356 43 413
-134 737 -136 249 -252 483 -298 602 -127 329 -130 588 -11 806 43 77 63 88
80 45z m1393 -1759 c34 -13 49 -108 48 -304 -2 -207 8 -307 45 -459 52 -219
138 -420 248 -585 69 -104 120 -163 314 -361 175 -179 233 -250 290 -357 63
-116 84 -217 78 -362 -3 -67 -13 -150 -22 -186 -24 -90 -93 -233 -148 -306
-48 -64 -147 -141 -166 -130 -6 4 -8 24 -5 49 4 29 0 58 -14 95 -22 57 -149
252 -165 252 -182 0 -372 11 -421 24 -123 34 -263 132 -438 306 -85 86 -101
108 -140 191 -24 52 -73 153 -109 224 -90 174 -120 271 -126 407 -11 219 38
361 242 703 87 146 127 225 165 326 72 192 159 365 215 427 46 51 70 61 109
46z m2624 -91 c66 -65 111 -120 134 -163 20 -36 49 -90 66 -122 36 -63 58
-117 112 -268 21 -58 56 -136 79 -174 83 -136 171 -350 201 -495 18 -83 21
-124 17 -205 -8 -154 -37 -240 -139 -412 -26 -44 -64 -118 -84 -165 -77 -178
-147 -256 -378 -423 -159 -115 -232 -136 -483 -136 l-152 0 -54 -77 c-110
-157 -141 -237 -113 -291 30 -58 15 -66 -54 -30 -57 30 -102 85 -177 209 -83
140 -114 234 -121 371 -9 190 28 332 123 473 70 104 115 156 307 355 229 237
320 363 400 557 77 187 116 388 138 723 11 162 27 318 36 353 10 35 46 15 142
-80z m888 -2608 c-95 -143 -310 -259 -711 -381 -232 -71 -344 -127 -443 -222
-105 -101 -157 -200 -218 -412 -47 -164 -75 -157 -57 14 28 266 130 404 451
606 73 47 79 63 20 54 -162 -25 -355 -128 -466 -249 -142 -156 -180 -358 -167
-910 7 -327 1 -402 -41 -520 -26 -76 -79 -149 -131 -184 -58 -38 -67 -25 -22
32 50 62 93 152 117 245 15 59 17 125 17 532 0 455 0 467 23 550 60 218 178
367 367 462 123 62 220 87 440 113 77 9 183 22 235 30 245 38 417 117 549 254
74 76 92 69 37 -14z m-4492 20 c57 -69 197 -161 308 -201 106 -39 235 -64 433
-84 285 -29 442 -76 578 -174 131 -93 207 -192 252 -324 48 -141 50 -170 50
-652 0 -387 2 -464 16 -515 25 -92 59 -164 111 -232 40 -53 44 -63 28 -63 -27
0 -95 63 -127 117 -79 135 -98 271 -95 683 2 445 -10 541 -94 717 -93 196
-294 337 -523 368 -74 10 -65 -9 30 -60 105 -57 157 -95 214 -156 97 -103 161
-219 196 -352 19 -75 26 -227 10 -227 -11 0 -42 91 -67 195 -45 190 -168 340
-364 447 -74 40 -143 67 -385 149 -295 101 -413 160 -514 255 -79 75 -135 154
-108 154 8 0 31 -20 51 -45z"/>
<path d="M5150 9680 c-11 -16 -30 -51 -41 -77 -12 -26 -37 -82 -56 -123 -54
-115 -119 -286 -143 -375 -28 -100 -38 -294 -20 -363 60 -231 218 -444 550
-745 343 -311 505 -505 592 -710 36 -85 61 -216 52 -279 -7 -55 4 -61 35 -22
55 69 93 233 93 399 0 252 -52 350 -332 635 -266 269 -367 406 -491 660 -142
290 -169 415 -174 810 -2 113 -4 208 -4 213 -2 18 -42 4 -61 -23z"/>
<path d="M4720 8813 c-99 -190 -123 -280 -124 -473 -1 -127 2 -154 22 -214 46
-137 105 -229 218 -336 111 -106 225 -177 489 -306 258 -125 355 -185 442
-270 85 -85 109 -120 158 -236 24 -57 49 -103 56 -103 40 0 53 225 18 328 -57
171 -144 277 -487 594 -241 223 -351 338 -446 466 -143 194 -225 395 -244 601
-4 45 -12 81 -18 83 -7 2 -44 -58 -84 -134z"/>
<path d="M7775 9693 c-3 -10 -10 -126 -15 -258 -8 -241 -19 -319 -62 -470 -59
-209 -129 -368 -231 -522 -73 -110 -157 -209 -339 -398 -156 -163 -175 -184
-232 -269 -117 -175 -143 -378 -81 -619 51 -198 73 -214 92 -64 16 125 27 166
73 258 78 153 176 264 620 694 322 312 441 485 486 705 25 127 15 391 -20 511
-45 155 -127 308 -213 400 -49 52 -67 60 -78 32z"/>
<path d="M8167 8883 c-7 -110 -39 -243 -84 -347 -92 -216 -230 -389 -536 -673
-117 -108 -252 -237 -301 -287 -211 -216 -298 -389 -283 -566 12 -139 50 -173
81 -72 44 138 141 264 275 355 41 27 192 110 335 184 318 164 403 219 527 342
82 83 102 109 141 191 26 52 52 120 60 150 17 71 17 289 0 360 -39 160 -126
383 -170 433 -30 34 -39 20 -45 -70z"/>
<path d="M3473 9703 c-83 -130 -253 -450 -253 -477 0 -3 -13 -34 -29 -68 -45
-100 -128 -353 -166 -510 -72 -297 -98 -518 -97 -833 0 -338 33 -609 107 -901
158 -619 467 -1162 916 -1613 108 -108 279 -263 379 -342 72 -58 318 -219 425
-279 235 -131 243 -124 25 22 -287 190 -472 348 -654 556 -431 495 -700 1069
-798 1700 -20 127 -23 185 -23 432 0 223 4 310 18 400 79 508 227 954 403
1215 114 170 134 208 134 254 0 49 -28 106 -89 181 -21 25 -66 81 -102 125
-36 44 -83 106 -104 138 -21 31 -42 57 -47 57 -4 0 -25 -26 -45 -57z"/>
<path d="M9448 9742 c-7 -9 -35 -48 -61 -87 -25 -38 -85 -115 -133 -170 -115
-134 -143 -190 -124 -254 5 -18 54 -107 108 -199 168 -281 209 -369 291 -625
313 -968 189 -1892 -368 -2742 -128 -197 -297 -401 -491 -596 -145 -147 -209
-199 -395 -322 -129 -85 -166 -116 -142 -117 24 0 83 31 196 104 53 34 119 75
146 90 269 154 756 636 960 951 162 250 337 588 416 804 150 407 211 771 211
1251 0 479 -87 913 -267 1336 -94 219 -287 575 -319 587 -8 3 -20 -2 -28 -11z"/>
<path d="M2930 3688 c0 -233 -3 -655 -7 -938 -5 -453 -4 -517 9 -531 12 -12
43 -14 166 -13 83 1 155 5 161 9 7 4 11 90 11 260 0 233 1 254 18 259 65 19
465 87 472 80 5 -5 12 -77 15 -159 l7 -150 45 -97 46 -97 66 -29 c100 -44 161
-66 167 -59 7 6 -24 842 -31 865 -7 21 1 22 -605 -84 -80 -14 -156 -26 -170
-27 l-25 -2 -3 369 c-1 248 1 373 8 380 12 12 459 105 476 99 8 -3 13 -49 16
-131 l4 -127 52 -87 c58 -95 37 -81 218 -149 62 -24 76 -17 69 31 -3 14 -12
178 -20 365 -9 187 -18 351 -21 364 -4 20 -9 23 -37 18 -18 -3 -178 -33 -358
-66 -179 -34 -343 -62 -365 -64 l-39 -2 -5 65 -5 65 -167 3 -168 2 0 -422z"/>
<path d="M7095 4098 c-3 -7 -4 -434 -3 -948 l3 -935 165 0 165 0 3 748 c1 548
5 747 13 747 7 0 57 -44 113 -97 55 -54 103 -100 106 -103 368 -355 634 -605
646 -608 12 -3 14 90 12 600 l-3 603 -165 0 -165 0 -3 -240 c-1 -136 -7 -244
-12 -249 -10 -10 -27 5 -344 311 l-188 183 -169 0 c-127 0 -171 -3 -174 -12z"/>
<path d="M8837 4104 c-4 -4 -7 -432 -7 -951 l0 -943 168 2 167 3 3 347 c3 403
-14 357 139 389 54 11 135 29 181 40 101 23 109 23 116 2 5 -16 71 -463 98
-658 18 -136 2 -125 187 -125 93 0 162 4 166 10 3 5 -10 116 -30 247 -20 131
-49 324 -65 428 -60 392 -70 449 -79 458 -6 6 -62 -2 -153 -23 -79 -18 -190
-43 -248 -56 -215 -49 -256 -57 -280 -58 l-25 -1 -5 445 -5 445 -161 3 c-88 1
-163 -1 -167 -4z"/>
<path d="M4942 3958 c-81 -79 -187 -182 -237 -230 l-90 -87 90 -91 c49 -49 96
-90 105 -90 8 1 71 55 140 120 69 66 132 120 140 120 8 0 83 -67 165 -150
l150 -149 5 -593 5 -593 165 0 165 0 5 595 5 595 130 126 c156 151 199 189
215 189 7 0 75 -58 151 -130 76 -71 142 -130 146 -130 5 0 49 40 98 90 l90 90
-60 56 c-33 32 -140 134 -238 228 -98 94 -185 172 -192 174 -8 2 -118 -97
-246 -220 -127 -123 -237 -225 -246 -226 -15 -4 -55 33 -330 300 -83 81 -159
148 -167 148 -9 0 -82 -64 -164 -142z"/>
</g>
</svg>
