<svg width="36" height="36" viewBox="0 0 36 36" fill="none" xmlns="http://www.w3.org/2000/svg">
<path d="M18.2246 24.75V27.9" stroke="#029BD0" stroke-width="1.5" stroke-linecap="round" stroke-linejoin="round"/>
<path d="M10.7256 33H25.7256V31.5C25.7256 29.85 24.3756 28.5 22.7256 28.5H13.7256C12.0756 28.5 10.7256 29.85 10.7256 31.5V33V33Z" stroke="#029BD0" stroke-width="1.5" stroke-miterlimit="10"/>
<path d="M9.22461 33H27.2246" stroke="#029BD0" stroke-width="1.5" stroke-linecap="round" stroke-linejoin="round"/>
<path d="M18 24C12.195 24 7.5 19.305 7.5 13.5V9C7.5 5.685 10.185 3 13.5 3H22.5C25.815 3 28.5 5.685 28.5 9V13.5C28.5 19.305 23.805 24 18 24Z" stroke="#029BD0" stroke-width="1.5" stroke-linecap="round" stroke-linejoin="round"/>
<path d="M8.20555 17.4749C7.08055 17.1149 6.09055 16.4549 5.31055 15.6749C3.96055 14.1749 3.06055 12.3749 3.06055 10.2749C3.06055 8.1749 4.71055 6.5249 6.81055 6.5249H7.78555C7.48555 7.2149 7.33555 7.9799 7.33555 8.7749V13.2749C7.33555 14.7749 7.65055 16.1849 8.20555 17.4749Z" stroke="#029BD0" stroke-width="1.5" stroke-linecap="round" stroke-linejoin="round"/>
<path d="M27.7949 17.4749C28.9199 17.1149 29.9099 16.4549 30.6899 15.6749C32.0399 14.1749 32.9399 12.3749 32.9399 10.2749C32.9399 8.1749 31.2899 6.5249 29.1899 6.5249H28.2149C28.5149 7.2149 28.6649 7.9799 28.6649 8.7749V13.2749C28.6649 14.7749 28.3499 16.1849 27.7949 17.4749Z" stroke="#029BD0" stroke-width="1.5" stroke-linecap="round" stroke-linejoin="round"/>
</svg>
