<svg width="36" height="36" viewBox="0 0 36 36" fill="none" xmlns="http://www.w3.org/2000/svg">
<path d="M27.0001 10.7398C26.9101 10.7248 26.8051 10.7248 26.7151 10.7398C24.6451 10.6648 22.9951 8.96976 22.9951 6.86976C22.9951 4.72476 24.7201 2.99976 26.8651 2.99976C29.0101 2.99976 30.7351 4.73976 30.7351 6.86976C30.7201 8.96976 29.0701 10.6648 27.0001 10.7398Z" stroke="#029BD0" stroke-width="1.5" stroke-linecap="round" stroke-linejoin="round"/>
<path d="M25.4552 21.6598C27.5102 22.0048 29.7752 21.6448 31.3652 20.5798C33.4802 19.1698 33.4802 16.8598 31.3652 15.4498C29.7602 14.3848 27.4652 14.0247 25.4102 14.3847" stroke="#029BD0" stroke-width="1.5" stroke-linecap="round" stroke-linejoin="round"/>
<path d="M8.95571 10.74C9.04571 10.725 9.1507 10.725 9.2407 10.74C11.3107 10.665 12.9607 8.97 12.9607 6.87C12.9607 4.725 11.2357 3 9.09071 3C6.94571 3 5.2207 4.74 5.2207 6.87C5.2357 8.97 6.88571 10.665 8.95571 10.74Z" stroke="#029BD0" stroke-width="1.5" stroke-linecap="round" stroke-linejoin="round"/>
<path d="M10.5002 21.66C8.44515 22.005 6.18016 21.645 4.59016 20.58C2.47516 19.17 2.47516 16.86 4.59016 15.45C6.19516 14.385 8.49015 14.025 10.5452 14.385" stroke="#029BD0" stroke-width="1.5" stroke-linecap="round" stroke-linejoin="round"/>
<path d="M18.0001 21.9448C17.9101 21.9298 17.8051 21.9298 17.7151 21.9448C15.6451 21.8698 13.9951 20.1748 13.9951 18.0748C13.9951 15.9298 15.7201 14.2048 17.8651 14.2048C20.0101 14.2048 21.7351 15.9448 21.7351 18.0748C21.7201 20.1748 20.0701 21.8848 18.0001 21.9448Z" stroke="#029BD0" stroke-width="1.5" stroke-linecap="round" stroke-linejoin="round"/>
<path d="M13.6341 26.67C11.5191 28.08 11.5191 30.39 13.6341 31.8C16.0341 33.405 19.9641 33.405 22.3641 31.8C24.4791 30.39 24.4791 28.08 22.3641 26.67C19.9791 25.08 16.0341 25.08 13.6341 26.67Z" stroke="#029BD0" stroke-width="1.5" stroke-linecap="round" stroke-linejoin="round"/>
</svg>
