<svg xmlns="http://www.w3.org/2000/svg" width="18" height="18" fill="none" viewBox="0 0 18 18"><path fill="#fff" d="M8.967 6.725a2.242 2.242 0 1 0 0 4.483 2.242 2.242 0 0 0 0-4.483Zm0-1.495a3.736 3.736 0 1 1 0 7.472 3.736 3.736 0 0 1 0-7.472Zm4.856-.187a.934.934 0 1 1-1.867 0 .934.934 0 0 1 1.867 0ZM8.967 2.99c-1.849 0-2.15.005-3.01.043-.586.028-.98.106-1.344.248a2.156 2.156 0 0 0-.807.525 2.16 2.16 0 0 0-.526.807c-.142.366-.22.759-.247 1.344-.04.825-.044 1.113-.044 3.01 0 1.85.005 2.15.043 3.01.028.585.106.98.247 1.343.127.325.277.559.525.807.252.251.486.401.807.525.369.143.762.222 1.345.25.825.038 1.113.042 3.01.042 1.85 0 2.15-.005 3.01-.043.585-.028.978-.106 1.343-.247.305-.113.58-.292.807-.526a2.13 2.13 0 0 0 .526-.807c.142-.367.221-.76.248-1.344.039-.825.043-1.114.043-3.01 0-1.848-.005-2.15-.043-3.01-.028-.585-.107-.98-.248-1.344a2.175 2.175 0 0 0-.525-.807 2.155 2.155 0 0 0-.807-.526c-.366-.142-.76-.22-1.344-.247-.824-.039-1.111-.043-3.01-.043Zm0-1.495c2.03 0 2.283.008 3.08.045.795.038 1.338.162 1.814.348.493.19.908.446 1.324.861.38.374.674.825.861 1.324.185.476.31 1.018.348 1.814.035.797.045 1.05.045 3.08 0 2.03-.008 2.283-.045 3.08-.038.796-.163 1.337-.348 1.814a3.65 3.65 0 0 1-.861 1.324c-.374.38-.826.674-1.324.862-.476.184-1.019.31-1.814.347-.797.035-1.05.045-3.08.045-2.03 0-2.284-.008-3.08-.045-.796-.038-1.337-.163-1.814-.348a3.653 3.653 0 0 1-1.324-.861 3.665 3.665 0 0 1-.862-1.324c-.185-.476-.31-1.018-.347-1.814-.036-.797-.045-1.05-.045-3.08 0-2.03.008-2.283.045-3.08.037-.796.162-1.337.347-1.814.187-.499.481-.95.862-1.324a3.65 3.65 0 0 1 1.324-.861c.476-.186 1.017-.31 1.813-.348.797-.035 1.05-.045 3.08-.045Z"/></svg>