<svg xmlns="http://www.w3.org/2000/svg" width="18" height="18" fill="none" viewBox="0 0 18 18"><path fill="#fff" fill-rule="evenodd" d="M7.423 10.93v-4.2l4.037 2.108-4.037 2.092Zm8.865-4.926s-.145-1.03-.594-1.484c-.568-.595-1.205-.598-1.497-.633-2.09-.151-5.228-.151-5.228-.151h-.006s-3.137 0-5.228.15c-.292.036-.929.038-1.497.634-.449.453-.594 1.484-.594 1.484s-.15 1.208-.15 2.418v1.134c0 1.209.15 2.418.15 2.418s.145 1.03.594 1.483c.568.596 1.315.576 1.647.64 1.196.113 5.081.149 5.081.149s3.14-.005 5.231-.156c.292-.035.93-.037 1.497-.633.449-.453.594-1.483.594-1.483s.15-1.21.15-2.418V8.422c0-1.21-.15-2.418-.15-2.418Z" clip-rule="evenodd"/></svg>